<svg width="465" height="348" viewBox="0 0 465 348" fill="none" xmlns="http://www.w3.org/2000/svg">
<path fill-rule="evenodd" clip-rule="evenodd" d="M238.548 42.9373C237.142 46.6487 235.738 50.3607 234.332 54.0722C233.431 56.4507 232.531 58.8287 231.631 61.2071C231.311 62.0504 231.134 62.9154 230.516 63.5008C229.06 64.8792 226.447 65.7565 224.698 66.7262C223.526 67.376 222.353 68.0257 221.181 68.6755C220.577 69.0108 219.237 69.4318 218.813 69.9882C218.347 70.6013 218.567 71.7273 218.567 72.5751V79.8949V93.6871C224.622 92.9318 230.677 92.1768 236.731 91.4215C228.665 100.709 220.598 109.996 212.532 119.284C210.544 121.573 208.13 123.776 206.649 126.439C203.497 132.108 200.415 137.817 197.299 143.505C194.398 148.8 191.497 154.095 188.597 159.39L214.693 158.282C221.45 157.995 228.391 158.426 234.901 156.516C240.267 154.941 245.634 153.366 251 151.791C251.714 151.581 253.937 151.344 254.443 150.771C254.917 150.234 254.907 148.205 255.041 147.518C257.574 134.527 260.798 120.211 268.191 109.029C273.491 101.012 280.643 93.9939 287.193 87.0035C289.75 84.2753 292.351 81.5796 294.817 78.7684C295.448 78.0484 296.361 77.2314 296.779 76.3569C297.048 75.7918 297.425 74.7152 297.258 74.2136C297.185 73.9961 295.5 73.2158 295.258 73.0609C293.55 71.9657 291.857 70.8474 290.161 69.7345C285.394 66.607 280.631 63.4718 275.837 60.3861C272.099 57.98 268.372 55.4289 264.429 53.3613C260.343 51.218 255.842 49.7095 251.558 48.0162C247.228 46.3047 242.891 44.6129 238.548 42.9373Z" fill="#FB9537"/>
<path fill-rule="evenodd" clip-rule="evenodd" d="M385.491 241.217C383.412 243.172 379.627 245.796 376.634 244.603C375.131 244.004 373.847 242.688 372.478 241.84C370.87 240.843 369.358 239.846 367.994 238.517C365.273 235.866 363.214 231.992 360 229.916C358.921 229.218 356.813 229.069 356.063 227.954C355.728 227.455 355.696 226.697 355.758 226.119C355.893 224.875 356.566 224.948 355.441 224.034H357.189C357.222 223.361 356.548 223.305 356.046 223.392C356.279 222.324 356.517 218.145 354.567 220.039C352.876 221.68 353.721 224.404 352.524 226.182C351.607 227.544 349.174 226.441 348.846 224.943C348.698 224.27 349.441 223.22 349.53 222.56C349.724 221.097 349.069 219.832 348.118 218.724C346.032 220.111 347.215 222.981 346.026 224.804C344.95 226.453 342.554 225.683 340.916 225.393C338.953 225.045 336.733 225.397 334.854 224.935C332.017 224.236 333.077 220.913 332.796 218.768C332.495 216.47 330.168 213.281 330.867 210.963C331.618 208.474 336.009 207.936 338.108 207.332C342.904 205.951 349.746 205.686 353.312 201.82C356.149 204.977 358.43 208.591 361.405 211.63C364.618 214.912 368.05 217.942 371.135 221.356C374.345 224.909 377.659 228.394 380.753 232.051C382.103 233.646 383.288 235.364 384.685 236.921C385.926 238.305 387.235 239.578 385.491 241.217ZM242.92 179.831C244.394 179.049 244.582 179.539 244.581 181.15C244.157 180.377 243.736 180.17 242.92 179.831ZM230.423 211.145V208.306C231.844 208.268 230.971 210.697 230.423 211.145ZM230.076 215.373C230.076 214.116 230.042 212.919 230.405 211.696C230.596 213.028 230.96 214.182 230.076 215.373ZM236.185 301.749C237.491 301.871 239.502 300.974 240.599 301.996C241.727 303.045 241.637 306.101 241.904 307.52C242.345 309.864 242.736 312.215 243.108 314.571C243.352 316.115 243.653 317.683 241.904 318.274C239.318 319.147 235.623 317.901 232.928 317.788C227.604 317.564 222.283 317.254 216.954 317.146C211.79 317.042 206.613 317.124 201.473 317.66C199.15 317.902 196.879 318.33 194.581 318.717C193.369 318.921 190.123 319.775 189.028 318.756C186.97 316.838 190.393 312.358 191.865 311.093C194.597 308.746 198.483 307.053 201.909 306.033C203.74 305.488 206.792 303.958 208.235 305.669C209.341 306.982 209.297 308.734 210.883 309.729C214.557 312.034 212.407 305.423 210.111 304.609C211.653 301.009 214.592 306.092 215.81 307.313C216.244 307.748 217.655 309.181 218.267 308.46C218.726 307.921 217.81 305.989 217.64 305.463C217.382 304.665 216.729 303.45 216.917 302.585C217.257 301.018 219.459 300.591 220.778 300.46C222.824 300.258 224.831 300.905 226.853 301.121C229.955 301.453 233.08 301.458 236.185 301.749ZM215.646 154.161C211.607 154.482 207.543 153.866 203.515 154.37C199.703 154.848 196.111 156.244 192.518 157.527C197.86 145.025 204.771 133.644 213.195 122.982C217.39 117.672 221.902 112.398 226.435 107.373C228.544 105.035 230.726 102.774 232.904 100.502C234.846 98.4744 236.238 95.0316 238.57 93.5177C240.559 92.2253 244.037 93.147 246.242 93.2272C248.735 93.3178 251.768 93.5439 254.199 92.7161C255.96 92.1161 256.445 90.5153 254.24 90.4622C251.639 90.3993 249.081 90.6698 246.446 90.4264C239.62 89.797 233.039 88.7626 226.158 89.3494C224.581 89.4835 222.506 90.1537 220.959 89.9525C219.846 89.807 220.578 90.3653 219.804 89.4744C219.508 89.1337 219.151 88.3326 219.064 87.8799C218.571 85.3374 219.97 81.7042 220.305 79.1445C220.614 76.7756 220.34 74.1719 220.919 71.8651C221.447 69.7658 223.056 69.4857 225.036 69.2614C230.455 68.6474 235.985 68.3207 241.429 67.8581C253.851 66.8023 266.668 65.2096 279.006 67.8187C283.461 68.7607 288.893 70.2175 292.873 72.5502C294.118 73.2793 295.374 74.138 294.921 75.6487C294.451 77.2169 292.149 78.8736 291.009 79.9067C282.581 87.5409 274.441 95.3279 268.521 105.124C260.971 117.615 256.639 131.106 254.097 145.419C253.55 148.499 253.042 150.111 249.867 150.997C246.459 151.949 243.169 152.568 239.634 152.857C231.645 153.512 223.631 153.525 215.646 154.161ZM218.352 71.4387C217.739 75.9858 216.911 80.5229 216.829 85.1059C216.798 86.8368 216.634 87.7041 214.789 88.0901C212.614 88.5451 210.403 88.884 208.219 89.3562C197.675 91.6363 187.331 94.4366 177.015 97.5885C166.99 100.653 157.13 104.099 146.879 106.369C142.47 107.346 137.31 108.004 133.294 110.165C128.974 112.492 129.542 116.306 129.155 120.495C128.637 126.092 126.973 131.511 126.388 137.106C126.109 139.779 125.854 142.469 125.896 145.159C125.932 147.452 126.261 149.988 124.716 151.918C121.617 147.783 120.148 142.583 119.537 137.516C119.24 135.053 119.358 132.57 119.273 130.095C119.204 128.103 119.249 124.934 117.948 123.27C115.121 119.654 111.444 134.145 111.095 135.692C110.507 138.297 110.022 140.923 109.436 143.528C109.176 144.683 108.843 148.88 107.292 149.298C104.08 150.166 104.785 141.157 104.734 139.785C104.632 137.017 104.563 134.245 104.628 131.474C104.675 129.474 105.063 127.304 104.833 125.303C104.268 120.389 101.499 125.566 100.721 127.395C98.7539 132.012 97.8643 136.953 96.1006 141.644C95.8072 142.424 95.1179 145.051 94.0258 145.1C92.8106 145.154 92.8202 142.441 92.7507 141.649C92.3474 137.054 90.9856 132.492 91.3966 127.85C91.8116 123.163 93.4582 118.345 95.7882 114.268C100.714 105.649 109.61 100.7 118.131 96.1916C127.882 91.0332 138.177 86.9578 148.692 83.6377C161.338 79.6448 174.322 76.414 187.385 74.1148C194.031 72.9453 200.779 72.1089 207.493 71.4382C209.853 71.2026 212.213 71.0649 214.542 70.6167C215.421 70.4473 218.593 69.6421 218.352 71.4387ZM225.144 56.7235C221.813 56.7497 218.409 55.138 215.163 54.4719C211.299 53.678 207.525 52.5293 203.667 51.7006C196.113 50.0779 188.555 48.4956 181.008 46.8372C177.732 46.1172 174.439 45.4905 171.176 44.7171C167.684 43.8897 163.912 42.9672 160.338 43.8585C154.921 45.2097 152.633 51.1233 150.644 55.7384C149.239 58.9981 148.138 62.6318 145.947 65.4683C145.167 66.4797 144.058 67.6859 142.644 67.3583C140.016 66.7502 140.433 63.2802 140.768 61.3621C141.253 58.5785 141.94 55.8276 142.49 53.0568C142.711 51.9385 144.429 44.6193 141.363 45.7524C139.088 46.5929 137.885 52.1292 137.024 54.1067C136.384 55.5761 135.706 57.0361 134.988 58.4693C134.03 60.3811 131.296 66.7688 128.27 65.945C123.938 64.766 128.093 53.4039 128.831 51.0091C129.236 49.6946 133.638 39.7255 129.923 40.5402C128.34 40.8878 126.798 43.8209 125.991 45.0366C124.561 47.1929 123.134 49.3647 121.787 51.5741C120.402 53.8466 119.694 56.433 118.32 58.6723C117.597 59.8509 116.122 61.4215 114.682 60.3303C112.436 58.6307 113.767 52.7183 114.16 50.4826C114.892 46.3261 116.709 42.065 119.203 38.667C122.949 33.5612 130.019 31.9114 135.964 30.9195C143.638 29.639 151.419 29.9892 159.125 30.7468C167.791 31.5992 176.326 32.5118 184.868 34.2545C193.478 36.0108 202.092 37.7531 210.568 40.0758C214.562 41.1701 218.612 42.1402 222.549 43.4248C226.734 44.7901 230.818 46.4892 235.12 47.4729C233.607 51.2406 232.093 55.0084 230.58 58.7766C229.132 57.347 227.155 56.7071 225.144 56.7235ZM299.31 67.1059C300.637 66.3818 302.102 66.0402 302.586 64.4397C303.015 63.0255 302.283 61.4233 301.933 60.0657C300.955 56.2649 300.698 52.3277 301.563 48.482C302.391 49.7422 305.488 54.5892 307.371 51.6548C308.507 49.8849 305.463 47.3388 304.575 46.0945C306.524 44.8939 309.309 41.6712 311.556 43.6147C313.009 44.8712 313.623 46.0809 315.58 46.6917C317.956 47.4335 320.192 47.2636 322.618 47.0588C324.316 46.9156 324.725 46.6895 325.389 47.9945C325.91 49.0203 326.179 50.29 326.483 51.3915C327.083 53.5634 328.471 57.8427 326.827 59.8772C325.387 61.6594 319.799 60.1314 319.023 62.4319C318.599 63.6866 320.619 63.7315 321.391 64.3523C322.347 65.1208 323.138 66.3438 323.657 67.4362C324.042 68.2442 324.627 69.5791 323.972 70.4051C323.067 71.5479 321.391 70.6811 320.662 69.8505C319.693 68.7471 319.379 67.2387 318.571 66.037C317.089 63.8321 317 65.5861 316.596 67.1693C316.177 68.8142 315.186 68.7009 313.667 68.9121C311.001 69.2832 308.308 69.8065 305.714 70.5193C304.384 70.8845 303.096 71.3499 301.829 71.8936C301.013 72.2434 299.598 73.3033 298.713 73.3133C297.072 73.3318 295.935 70.5936 295.088 69.4513C296.494 68.6678 297.897 67.8771 299.31 67.1059ZM387.419 234.773C383.321 229.864 379.772 224.532 375.729 219.581C371.742 214.697 367.128 210.428 362.653 206.005C360.541 203.917 358.518 201.627 356.186 199.777C354.447 198.397 353.109 198.376 351.017 198.987C345.073 200.724 339.02 202.815 333.395 205.408C328.156 207.822 323.385 210.922 317.704 212.268C311.906 213.642 305.877 214.084 299.934 213.743C293.838 213.394 288.089 212.128 282.292 210.268C276.802 208.506 271.077 206.968 266.382 203.476C261.459 199.816 257.656 194.551 254.132 189.599C252.348 187.092 250.577 184.46 249.375 181.619C248.332 179.153 247.651 176.243 245.779 174.234C245.32 174.883 244.748 175.44 244.515 176.203C244.409 176.549 245.035 176.538 244.971 176.814C244.849 177.333 244.157 177.862 243.755 178.144C242.309 179.159 242.301 178.351 242.68 180.249C242.901 181.356 242.483 183.852 240.675 183.037C241.34 183.832 240.283 184.835 239.937 185.491C239.7 185.218 239.404 185.124 239.051 185.206C239.712 186.52 239.322 186.555 238.681 187.598C238.564 187.789 238.149 188.787 238.208 188.703C237.554 189.634 236.797 189.868 236.415 191.027C236.101 191.979 236.182 193.026 235.832 193.976C235.409 193.393 234.987 192.81 234.564 192.227C234.65 192.686 234.823 193.365 235.023 193.781C235.15 194.041 235.691 194.648 235.684 194.79C235.654 195.32 234.991 195.193 234.802 195.65C234.448 196.508 234.96 196.634 234.767 197.471C234.545 198.431 233.95 198.047 233.667 198.866C233.614 199.021 234.032 199.633 233.965 199.968C233.872 200.442 233.442 200.708 233.29 201.129C232.903 202.201 233.044 202.986 232.506 204.014C232.298 204.413 231.995 204.678 231.849 205.131C231.72 205.53 231.997 206.379 231.749 206.736C230.551 208.457 230.719 205.492 230.81 204.757C231.573 198.582 234.019 192.209 236.258 186.438C237.37 183.57 238.453 180.613 239.848 177.867C240.409 176.761 241.057 175.619 241.985 174.773C243.158 173.703 244.823 173.275 245.886 172.08C245.718 172.268 247.038 171.022 246.826 171.432C247.015 171.065 246.686 170.57 246.803 170.215C246.949 169.775 247.224 169.683 247.531 169.298C248.083 168.606 248.738 168.262 247.872 167.381C249.158 167.097 249.773 166.681 250.03 165.307C250.217 164.301 249.838 164.367 250.5 163.697C251.163 163.023 251.499 163.549 251.917 162.383C252.417 160.988 252.749 159.091 253.049 157.631C253.311 156.356 252.676 154.482 253.752 153.582C255.116 152.442 256.336 152.925 256.092 150.633C255.854 148.398 256.549 147.045 257.249 144.931C258.644 140.71 259.183 136.253 260.407 131.982C263.018 122.867 267.632 114.649 272.592 106.625C277.176 99.2112 283.584 92.8946 289.772 86.8114C291.466 85.1453 293.142 83.4551 294.663 81.6286C295.974 80.0558 296.572 77.9143 297.832 76.4213C298.597 75.5146 300.022 75.1267 301.09 74.6459C302.872 73.8439 304.995 72.7976 307.007 72.9598C306.207 75.6482 305.947 78.7897 308.305 80.8057C311.167 83.2512 313.76 80.7105 316.383 79.3163C321.164 76.7747 328.001 79.1078 332.17 75.2984C333.163 74.3913 333.44 72.9417 334.472 72.0944C335.229 71.4731 336.307 71.3154 337.16 70.8523C339.75 69.4454 341.008 66.8698 339.999 64.0247C339.077 61.4237 337.644 60.5216 340.833 59.2034C343.422 58.134 344.406 56.5227 343.234 53.654C342.117 50.9189 340.071 50.604 338.134 48.8142C336.259 47.0805 338.413 45.0629 339.818 43.7615C341.63 42.0827 341.977 40.5697 339.876 38.8238C337.676 36.9959 334.536 37.0598 331.972 37.9638C329.072 38.9856 327.162 40.6843 325.935 43.4371C324.685 46.2395 321.587 45.4574 319.079 44.6764C316.68 43.9296 316.056 42.3183 314.48 40.5833C312.728 38.6534 309.158 40.3037 307.092 41.1855C302.002 43.356 296.944 46.7814 296.742 52.8492C296.622 56.4674 298.155 59.5428 298.953 62.939C299.682 66.0447 294.682 65.8 293.816 68.8042C284.579 63.925 274.292 62.4319 263.967 62.0998C252.993 61.7463 241.86 61.4631 230.98 63.1905C233.505 58.7997 234.839 53.9848 237.036 49.4739C237.669 48.1753 237.941 48.2863 239.337 48.6787C242.019 49.4322 244.68 50.2755 247.356 51.0517C257.132 53.8873 266.716 57.3039 276.169 61.0458C277.087 61.4097 279.138 62.4197 279.944 61.3213C280.873 60.0548 278.723 58.4934 277.853 57.8563C274.047 55.07 269.33 53.3789 265.068 51.4242C255.748 47.1516 245.428 45.1236 235.704 41.9504C214.711 35.0987 192.994 29.895 171.178 26.458C165.854 25.6193 160.473 25.4965 155.126 24.8739C150.39 24.3224 145.645 24.3351 140.909 24.9047C132.162 25.9573 122.022 28.2284 117.081 36.2179C112.622 43.4316 109.645 51.542 110.783 60.0988C111.125 62.6689 112.215 65.7126 115.394 65.0501C117.598 64.5906 118.769 62.7215 119.792 60.8972C121.339 58.1413 122.867 55.3854 124.543 52.7033C125.164 56.7248 122.905 60.6792 123.26 64.7759C123.502 67.5559 125.041 71.948 128.658 71.1609C133.616 70.0825 135.656 62.3544 138.04 58.647C138.16 61.5026 137.157 64.3169 137.464 67.1789C137.767 70.0059 139.981 72.6748 143.09 72.2874C146.023 71.9222 147.929 68.787 149.174 66.4267C150.907 63.142 152.153 59.6203 153.846 56.3138C155.432 53.2145 157.312 49.5247 161.1 48.9424C164.481 48.4222 168.355 49.6262 171.694 50.1228C180.958 51.5003 190.034 53.8457 199.196 55.7406C209.02 57.772 219.075 59.0058 228.596 62.2838C225.248 66.8304 216.488 65.848 211.501 66.3361C203.965 67.0737 196.332 67.6288 188.838 68.7172C181.437 69.792 174.191 71.7001 166.848 73.0854C159.543 74.4633 152.251 75.8435 145.183 78.1934C132.06 82.5566 118.718 88.0783 107.156 95.6913C101.776 99.2338 96.997 103.283 93.6739 108.874C90.3294 114.501 88.7224 120.863 88.1093 127.335C87.7279 131.365 88.3759 134.853 89.1583 138.775C89.725 141.615 89.9085 146.369 92.1903 148.449C96.5456 152.418 100.162 136.319 100.966 134.375C101.545 137.561 100.598 155.512 107.586 154.052C110.705 153.401 111.412 149.129 111.93 146.556C112.873 141.866 113.718 137.082 115.332 132.564C116.368 138.651 116.8 144.992 119.031 150.805C120.514 154.666 124.743 161.516 127.691 154.907C129.903 149.95 129.144 144.261 129.409 138.998C129.703 133.167 131.381 127.541 131.975 121.767C132.205 119.53 131.996 117.009 134.249 115.788C136.183 114.74 139.011 114.399 141.123 113.814C147.377 112.081 153.673 110.489 159.897 108.65C166.125 106.811 172.266 104.661 178.411 102.564C184.287 100.558 190.287 99.4174 196.235 97.6996C199.617 96.7226 202.957 95.7008 206.386 94.8852C207.982 94.5059 209.597 94.2105 211.189 93.8176C212.37 93.5267 213.925 92.4288 215.138 92.4483C216.387 92.4687 216.856 93.5236 218.288 93.6065C219.83 93.6953 221.397 93.3559 222.93 93.2385C226.665 92.9526 230.635 92.4904 234.362 93.007C232.122 95.6578 229.097 97.4902 226.446 99.686C223.389 102.219 220.43 104.953 217.818 107.944C212.564 113.961 207.597 120.322 202.983 126.841C198.431 133.272 194.767 140.31 191.581 147.5C189.993 151.083 188.452 154.744 187.355 158.51C186.905 160.057 186.537 161.61 185.724 163.017C184.978 164.307 183.927 165.42 184.808 166.978C185.416 166.599 185.961 166.127 186.51 165.672C185.876 170.131 184.506 174.445 183.803 178.89C183.109 183.27 183.137 187.775 183.182 192.198C183.276 201.462 183.967 210.516 185.85 219.602C187.754 228.79 190.201 237.909 193.286 246.772C196.256 255.306 199.236 264.256 203.382 272.3C207.809 280.891 213.076 289.923 219.485 297.196C215.299 298.907 209.971 298.587 205.538 299.276C200.905 299.996 196.896 301.356 192.947 303.914C188.952 306.504 186.783 309.837 186.231 314.557C185.839 317.917 184.673 322.569 189.091 323.452C192.268 324.087 195.82 323.044 199.004 322.786C204.573 322.336 210.15 322.054 215.731 321.812C221.298 321.569 226.866 321.356 232.435 321.184C235.054 321.102 237.675 321.062 240.293 320.968C241.467 320.926 242.178 320.908 243.23 321.247C244.062 321.514 244.001 322.07 244.928 321.383C246.422 320.274 246.114 316.778 246.073 315.241C246.009 312.869 245.784 310.47 245.32 308.143C245.045 306.76 241.705 297.845 244.302 297.47C241.285 294.161 240.079 289.437 238.724 285.29C237.026 280.094 235.535 274.913 234.365 269.569C231.865 258.155 230.76 246.615 230.76 234.936C242.348 242.063 254.608 245.924 268.256 246.354C281.826 246.783 296.734 245.671 309.619 241.166C315.586 239.08 320.93 236.34 326.046 232.65C327.88 231.327 329.844 228.331 332.251 228.382C335.123 228.444 338.34 229.529 341.192 229.993C346.647 230.88 353.766 231.38 358.384 234.747C360.893 236.576 362.69 239.136 364.929 241.243C366.632 242.846 368.884 243.716 370.574 245.32C372.398 247.049 371.673 249.309 374.697 249.449C377.282 249.568 380.116 248.53 382.345 247.312C386.793 244.882 391.529 239.695 387.419 234.773Z" fill="#D4D4D4"/>
<path fill-rule="evenodd" clip-rule="evenodd" d="M344.671 119.186C351.18 123.799 358.645 126.95 365.447 131.105C367.149 132.145 372.453 134.304 372.402 136.233C372.372 137.361 370.778 138.775 370.08 139.557C368.884 140.896 367.76 142.249 366.656 143.665C361.606 150.152 356.849 156.699 351.376 162.86C350.551 163.787 348.069 168.212 347.267 166.014C346.904 165.018 347.203 163.898 346.257 162.969C345.769 162.49 343.886 162.227 344.435 161.2C344.8 161.364 345.166 161.529 345.532 161.692C345.248 160.872 345.269 159.974 344.843 159.198C344.578 158.717 344.061 158.489 343.882 157.946C343.634 157.197 344.054 156.326 343.984 155.554C343.914 154.783 343.514 154.055 343.275 153.328C341.859 149.02 341.351 144.677 340.626 140.232C339.908 135.833 338.791 131.572 338.352 127.125C337.888 122.427 337.32 117.739 336.562 113.079C337.915 113.269 338.955 114.736 339.912 115.565C341.416 116.868 343.049 118.036 344.671 119.186ZM339.569 164.665C339.258 164.421 339.015 164.122 338.84 163.768C342.03 162.191 340.105 164.881 339.569 164.665ZM337.629 161.301C336.239 161.684 335.24 161.761 334.167 161.19C334.066 161.136 334.183 160.719 333.999 160.634C333.839 160.559 333.594 160.651 333.457 160.581C332.99 160.344 332.173 160.864 332.094 159.957C333.868 159.415 335.613 158.415 337.487 158.246C340.091 158.012 339.97 160.657 337.629 161.301ZM331.537 156.072C329.64 156.515 328.077 157.549 326.061 157.279C324.169 157.026 322.524 156.047 321.032 154.919C324.766 153.864 328.681 153.674 332.412 152.653C333.627 152.321 335.223 151.445 336.532 151.798C337.987 152.19 338.079 153.55 338.515 154.787C336.187 155.205 333.841 155.535 331.537 156.072ZM319.671 150.823C317.848 151.258 315.985 152.208 314.461 150.568C314.215 150.304 313.999 150.568 314.029 149.753C314.059 148.893 314.841 148.339 315.513 148.037C317.095 147.325 319.311 147.785 320.99 147.68C323.669 147.514 326.396 146.959 329.045 146.531C330.88 146.235 332.775 145.578 334.65 145.708C336.097 145.808 337.844 147.039 335.734 147.937C333.813 148.755 330.932 148.63 328.85 148.984C325.773 149.508 322.707 150.099 319.671 150.823ZM317.89 142.267C318.008 142.387 318.126 142.507 318.244 142.627C318.225 142.622 318.943 142.042 319.134 142.025C320.058 141.945 320.987 142.008 321.913 141.956C324.045 141.836 326.194 141.465 328.289 141.057C329.995 140.725 331.733 140.151 333.489 140.295C335.009 140.419 335.169 140.73 335.268 142.194C331.387 142.194 327.39 142.113 323.576 142.932C321.093 143.466 318.357 145.054 317.113 142.19C317.372 142.216 317.631 142.241 317.89 142.267ZM320.316 136.068C321.279 136.8 323.902 135.583 325.055 135.462C326.308 135.33 327.486 135.192 328.7 134.881C329.776 134.605 333.337 133.224 334.162 134.544C335.428 136.567 330.304 136.938 329.491 137.038C326.084 137.458 322.549 137.83 319.233 138.722C319.594 137.838 319.955 136.953 320.316 136.068ZM324.99 129.199C325.239 130.134 332.944 126.689 333.084 129.193C333.193 131.114 325.461 132.071 324.071 131.902C324.397 131.018 325.263 130.226 324.99 129.199ZM327.577 123.324C327.741 121.438 327.994 121.449 329.51 121.271C330.665 121.136 332.254 120.46 331.953 122.515C331.696 124.275 327.412 125.226 327.577 123.324ZM330.331 116.836C330.696 115.824 331.516 117.187 331.534 117.701C331.58 119.071 330.539 118.775 329.537 118.775C329.816 118.135 330.081 117.488 330.331 116.836ZM343.013 109.238C342.809 108.992 341.662 108.898 341.335 108.779C340.532 108.486 340.646 107.86 339.619 108.477C339.568 108.425 339.665 107.961 339.609 107.94C339.581 107.929 338.861 107.658 338.628 107.509C338.063 107.148 337.555 106.795 337.036 106.342C336.485 105.862 335.933 105.164 335.303 104.781C335.037 104.62 334.82 104.391 334.5 104.341C333.669 104.214 333.907 104.791 333.181 104.905C332.734 104.976 332.408 104.455 331.823 104.68C331.318 104.874 331.025 105.581 330.799 106.002C329.981 107.534 329.349 109.183 328.547 110.731C324.449 118.649 319.79 126.266 315.82 134.257C313.908 138.107 311.912 141.983 310.566 146.075C309.596 149.025 307.405 153.336 309.29 156.284C310.661 158.428 313.406 159.354 315.596 160.39C318.891 161.948 321.929 163.986 325.261 165.497C329.234 167.299 333.092 169.184 336.965 171.196C338.616 172.055 340.107 173.291 341.753 174.104C342.76 174.601 344.314 173.752 344.642 174.892C345.904 173.367 347.947 174.384 349.407 173.31C350.265 172.678 350.893 171.434 351.609 170.656C352.683 169.489 353.85 168.407 354.946 167.261C359.297 162.71 363.314 157.969 367.272 153.08C371.053 148.412 375.47 144.001 378.664 138.891C379.932 136.862 380.162 134.735 379.325 132.494C378.714 130.859 377.242 128.39 375.139 129.473C375.936 128.151 372.86 126.74 371.927 126.482C371.913 126.478 371.729 127.493 371.469 127.468C371.561 127.477 370.687 125.219 370.303 124.93C369.162 124.068 367.774 123.063 366.529 122.354C365.388 121.704 364.183 121.382 363.077 120.654C361.737 119.772 360.506 118.726 359.161 117.85C357.862 117.005 356.413 116.005 354.978 115.424C353.732 114.92 352.614 114.821 351.494 113.994C350.108 112.972 348.899 112.278 347.301 111.573C345.918 110.964 344.002 110.431 343.013 109.238Z" fill="#D4D4D4"/>
<path fill-rule="evenodd" clip-rule="evenodd" d="M154.262 231.692C154.517 231.096 154.77 230.5 155.024 229.905C155.339 230.943 155.427 231.46 154.262 231.692ZM154.601 234.444C154.05 234.543 154.267 232.818 154.267 232.518C155.218 233.055 154.43 233.7 154.601 234.444ZM153.742 229.47C154.212 229.193 154.681 228.917 155.151 228.64C154.497 229.849 154.753 229.094 155.023 229.901C154.53 230.043 154.05 229.878 153.742 229.47ZM150.959 238.919C149.199 245.291 143.609 250.317 137.704 252.92C134.311 254.415 130.975 254.79 127.311 254.623C125.898 254.558 124.235 254.1 122.875 254.185C121.828 254.251 121.875 254.297 121.008 255.181C120.624 254.476 120.902 253.981 120.132 253.571C119.172 253.059 118.773 253.655 118.297 254.364C117.673 253.719 117.418 253.383 116.61 253C116.636 253.012 115.837 252.982 115.869 252.992C115.725 252.947 114.856 252.39 114.584 252.288C113.468 251.87 112.178 251.699 111.148 251.099C110.247 250.576 109.505 249.106 108.474 250.236C108.473 248.349 105.926 247.566 104.732 246.578C102.867 245.034 101.384 242.747 100.454 240.536C99.4619 238.177 99.1308 235.916 98.6667 233.485C98.3425 231.787 96.2191 229.332 97.4942 227.618C97.798 228.337 97.6554 229.073 98.1599 229.724C98.614 228.851 98.8638 227.874 99.0691 226.919C99.1699 226.451 99.7538 225.077 99.6875 224.669C99.5527 223.834 98.5173 223.789 99.0913 222.766C100.282 224.059 101.243 221.788 100.343 220.884C99.8992 221.383 99.7361 221.951 99.5313 222.57C98.3607 220.212 101.601 220.971 100.892 218.843C102.074 218.616 102.754 218.318 103.204 217.152C103.704 215.855 103.336 215.572 104.471 214.715C104.862 214.421 105.966 213.997 106.168 213.512C106.559 212.575 105.564 212.298 106.435 211.42C106.73 211.935 107.877 212.955 108.505 211.985C108.631 211.791 108.103 211.654 108.487 211.208C109.056 210.548 109.692 209.901 110.655 210.04C109.893 208.139 114.761 207.989 116.008 207.54C117.258 207.091 118.318 206.796 119.643 206.692C120.967 206.587 121.033 206.2 122.154 205.405C122.249 206.543 122.523 206.293 123.334 206.494C123.528 206.16 123.728 206.123 123.932 206.381C124.136 206.574 124.385 206.665 124.678 206.654C125.123 206.677 125.628 206.619 126.094 206.629C127.189 206.65 128.319 206.559 129.393 206.582C129.67 206.536 129.928 206.44 130.171 206.293C130.272 206.484 130.374 206.674 130.475 206.865C131.044 206.936 131.088 207.648 131.788 206.87C131.995 207.859 132.589 207.344 133.218 207.612C133.791 207.858 133.882 208.249 134.411 208.522C134.759 208.804 135.132 208.841 135.531 208.635C135.91 208.915 136.295 209.187 136.685 209.452C137.405 209.857 138.253 210.105 139.012 210.426C139.516 210.633 140.018 210.85 140.515 211.073C140.53 211.672 140.799 211.884 141.322 211.708C141.795 212.102 141.928 212.087 142.387 212.759C143.426 214.282 144.348 215.465 145.66 216.826C151.364 222.744 153.116 231.111 150.959 238.919ZM152.71 213.755C150.135 210.314 146.49 206.374 143.214 204.2C141.554 203.098 139.223 201.12 137.193 200.538C136.712 200.4 136.214 200.39 135.74 200.245C135.375 200.134 135.176 199.759 134.759 199.692C134.468 199.645 134.435 200.296 134.126 200.236C133.478 200.11 133.068 199.469 132.61 199.068C131.628 200.757 131.095 197.916 129.653 199.826C127.936 197.14 123.904 197.727 121.163 197.863C120.35 197.903 119.968 198.191 119.248 198.405C118.577 198.604 118.511 198.553 117.778 198.548C115.954 198.534 114.335 198.762 112.649 199.562C109.816 200.904 107.216 202.996 104.525 204.615C101.518 206.423 98.8075 208.725 96.507 211.37C88.1906 220.933 85.9669 234.893 92.5981 245.98C103.131 263.589 130.3 265.471 145.696 253.523C157.59 244.291 162.117 226.322 152.71 213.755Z" fill="#D4D4D4"/>
<path fill-rule="evenodd" clip-rule="evenodd" d="M283.077 164.202C282.782 164.906 280.021 164.669 279.961 163.839C279.871 162.6 283.591 162.979 283.077 164.202ZM286.009 163.742C287.574 163.869 290.144 164.929 291.652 164.289C293.953 163.311 291.536 161.81 290.302 161.361C289.046 160.905 287.175 161.147 286.529 159.837C286.044 158.851 287.244 156.1 285.755 156.542C284.192 157.006 284.646 160.948 282.194 159.619C281.024 158.985 281.501 155.124 279.542 157.097C279.005 157.636 278.959 158.627 278.248 159.03C277.524 159.441 276.615 159.012 275.849 159.048C273.824 159.143 273.178 161.034 275.231 161.784C275.991 162.061 278.854 162.4 277.12 163.639C276.027 164.419 273.598 162.782 272.66 164.14C271.37 166.006 274.825 166.048 275.754 166.607C277.327 167.552 276.027 169.76 276.153 171.332C276.345 173.735 277.743 173.233 278.252 171.2C278.683 169.475 278.149 166.991 280.755 167.677C284.999 168.793 278.395 174.17 281.503 175.546C283.486 176.423 283.766 171.681 283.92 170.864C284.49 167.851 286.187 168.554 288.757 168.646C291.759 168.754 292.484 166.538 289.304 165.903C288.29 165.7 286.895 165.956 286.014 165.312C285.492 164.931 284.776 163.642 286.009 163.742Z" fill="#D4D4D4"/>
<path fill-rule="evenodd" clip-rule="evenodd" d="M175.152 262.203C172.722 261.335 168.657 261.523 168.056 264.654C167.804 265.965 168.294 267.352 169.201 268.304C170.254 269.409 171.929 269.511 171.84 267.588C171.778 266.257 170.508 265.101 172.74 264.833C174.128 264.666 176.182 265.702 176.251 267.233C176.408 270.683 170.422 270.954 168.217 270.357C163.839 269.173 165.029 264.598 168.035 262.51C168.811 261.97 171.04 261.139 171.141 260.019C171.277 258.533 169.435 258.836 168.532 259.032C161.896 260.473 160.45 271.566 167.384 273.657C170.532 274.606 174.967 273.626 176.864 270.781C178.644 268.113 178.668 263.459 175.152 262.203Z" fill="#D4D4D4"/>
<path fill-rule="evenodd" clip-rule="evenodd" d="M87.168 183.679C85.0936 184.675 83.0193 185.672 80.9454 186.668C80.2597 185.204 79.1013 181.204 77.3621 180.694C74.5467 179.867 76.3395 184.227 76.8253 185.223C77.2245 186.042 78.1504 187.311 77.9256 188.287C77.6241 189.602 75.765 190.068 74.7919 190.746C72.3838 192.425 72.4028 195.952 75.8903 194.458C77.8639 193.612 80.3074 191.266 81.82 193.929C82.5184 195.158 84.1732 202.024 85.9015 197.534C86.9709 194.754 81.8236 191.866 84.3612 189.514C85.1781 188.757 86.1344 188.693 86.9504 188.258C88.9212 187.208 87.8101 185.266 87.168 183.679Z" fill="#D4D4D4"/>
<path fill-rule="evenodd" clip-rule="evenodd" d="M391.274 84.1996C390.037 83.7483 388.508 82.867 387.133 83.1674C385.672 83.4864 385.084 84.9464 384.022 85.8241C381.134 88.2107 379.452 84.6537 377.866 82.7043C376.367 80.8637 374.539 80.417 372.425 81.548C371.582 81.9988 368.033 84.0646 368.652 85.3882C369.097 86.3406 370.851 85.4856 371.449 85.2776C372.747 84.8268 373.953 84.4321 375.28 85.0896C377.771 86.3221 378.417 89.7019 381.431 90.2289C384.547 90.774 384.649 87.8151 386.873 86.7013C388.364 85.955 389.402 87.2764 390.84 87.0131C392.211 86.7625 392.845 84.7724 391.274 84.1996Z" fill="#D4D4D4"/>
<path fill-rule="evenodd" clip-rule="evenodd" d="M366.117 96.1246C367.219 96.3634 367.938 94.2305 368.628 93.6895C369.772 92.7928 371.756 92.612 372.921 93.5146C375.197 95.2763 374.413 99.0799 377.653 100.071C380.548 100.958 381.913 97.1518 384.35 96.2043C385.767 95.6533 387.323 95.2927 386.77 93.3157C386.388 91.9486 385.263 91.5974 384.04 92.1226C381.937 93.0243 381.223 96.6978 378.731 96.7635C376.152 96.8315 375.872 93.1217 374.765 91.5059C373.077 89.0432 369.607 88.4482 367.636 90.8031C367.04 91.5136 364.018 95.671 366.117 96.1246Z" fill="#D4D4D4"/>
<path fill-rule="evenodd" clip-rule="evenodd" d="M315.141 54.0701C316.674 55.1168 319.729 55.0805 321.141 53.7823C322.578 52.4615 320.66 52.2585 319.489 52.2988C318.589 52.3301 316.903 52.7755 317.416 51.2235C317.872 49.8465 320.375 50.5475 320.584 49.0359C318.7 48.6987 316.625 48.8202 315.231 50.2978C314.223 51.3658 313.706 53.09 315.141 54.0701Z" fill="#D4D4D4"/>
</svg>
